<?xml version="1.0" standalone="no"?><!DOCTYPE svg PUBLIC "-//W3C//DTD SVG 1.1//EN" "http://www.w3.org/Graphics/SVG/1.1/DTD/svg11.dtd"><svg t="1587251161211" class="icon" viewBox="0 0 1024 1024" version="1.1" xmlns="http://www.w3.org/2000/svg" p-id="2203" xmlns:xlink="http://www.w3.org/1999/xlink" width="200" height="200"><defs><style type="text/css"></style></defs><path d="M998.4 435.2a25.6 25.6 0 0 1-25.6-25.6V192H51.2v217.6a25.6 25.6 0 0 1-51.2 0V166.4a25.6 25.6 0 0 1 25.6-25.6h972.8a25.6 25.6 0 0 1 25.6 25.6v243.2a25.6 25.6 0 0 1-25.6 25.6zM998.4 1024H25.6a25.6 25.6 0 0 1-25.6-25.6V742.4a25.6 25.6 0 0 1 51.2 0v230.4h921.6V742.4a25.6 25.6 0 0 1 51.2 0v256a25.6 25.6 0 0 1-25.6 25.6z" fill="#dbdbdb" p-id="2204"></path><path d="M25.6 768a25.6 25.6 0 0 1 0-51.2c77.632 0 140.8-63.168 140.8-140.8S103.232 435.2 25.6 435.2a25.6 25.6 0 0 1 0-51.2c105.8688 0 192 86.1312 192 192S131.4688 768 25.6 768zM998.4 768c-105.8688 0-192-86.1312-192-192s86.1312-192 192-192a25.6 25.6 0 0 1 0 51.2c-77.632 0-140.8 63.168-140.8 140.8s63.168 140.8 140.8 140.8a25.6 25.6 0 0 1 0 51.2zM153.6 179.2a25.6 25.6 0 0 1-25.6-25.6V25.6a25.6 25.6 0 0 1 25.6-25.6h844.8a25.6 25.6 0 0 1 0 51.2H179.2v102.4a25.6 25.6 0 0 1-25.6 25.6zM512 528.6784a25.4976 25.4976 0 0 1-18.0992-7.5008L358.144 385.4208a25.6 25.6 0 1 1 36.1984-36.1984L512 466.8672l117.6448-117.6448a25.6 25.6 0 1 1 36.1984 36.1984L530.0992 521.1776c-5.0048 4.992-11.5456 7.5008-18.0992 7.5008z" fill="#dbdbdb" p-id="2205"></path><path d="M665.6 554.2784H358.4a25.6 25.6 0 0 1 0-51.2h307.2a25.6 25.6 0 0 1 0 51.2zM665.6 682.2784H358.4a25.6 25.6 0 0 1 0-51.2h307.2a25.6 25.6 0 0 1 0 51.2z" fill="#dbdbdb" p-id="2206"></path><path d="M512 810.2784a25.6 25.6 0 0 1-25.6-25.6v-256a25.6 25.6 0 0 1 51.2 0v256a25.6 25.6 0 0 1-25.6 25.6z" fill="#dbdbdb" p-id="2207"></path></svg>