<?xml version="1.0" standalone="no"?><!DOCTYPE svg PUBLIC "-//W3C//DTD SVG 1.1//EN" "http://www.w3.org/Graphics/SVG/1.1/DTD/svg11.dtd"><svg t="1575965548839" class="icon" viewBox="0 0 1024 1024" version="1.1" xmlns="http://www.w3.org/2000/svg" p-id="829" xmlns:xlink="http://www.w3.org/1999/xlink" width="200" height="200"><defs><style type="text/css"></style></defs><path d="M772.654545 577.163636H251.345455c-72.610909 0-130.327273 55.854545-130.327273 126.603637V912.290909h781.963636V703.767273c0-70.749091-59.578182-126.603636-130.327273-126.603637z m55.854546 260.654546H195.490909v-134.050909c0-27.927273 26.065455-52.130909 55.854546-52.130909h521.30909c31.650909 0 55.854545 22.341818 55.854546 52.130909V837.818182zM394.705455 465.454545h236.450909c27.927273 0 50.269091-22.341818 50.269091-50.26909V180.596364C679.563636 152.669091 657.221818 130.327273 629.294545 130.327273H394.705455C366.778182 130.327273 344.436364 152.669091 344.436364 180.596364v236.450909c0 26.065455 22.341818 48.407273 50.269091 48.407272zM418.909091 204.8h186.181818v186.181818H418.909091V204.8z" p-id="830"></path></svg>