<?xml version="1.0" standalone="no"?><!DOCTYPE svg PUBLIC "-//W3C//DTD SVG 1.1//EN" "http://www.w3.org/Graphics/SVG/1.1/DTD/svg11.dtd"><svg t="1577411044684" class="icon" viewBox="0 0 1024 1024" version="1.1" xmlns="http://www.w3.org/2000/svg" p-id="2667" width="200" height="200" xmlns:xlink="http://www.w3.org/1999/xlink"><defs><style type="text/css"></style></defs><path d="M398.222222 341.333333c-34.133333 0-56.888889-22.755556-56.888889-56.888889s22.755556-56.888889 56.888889-56.888888 56.888889 22.755556 56.888889 56.888888-22.755556 56.888889-56.888889 56.888889zM398.222222 568.888889c-34.133333 0-56.888889-22.755556-56.888889-56.888889s22.755556-56.888889 56.888889-56.888889 56.888889 22.755556 56.888889 56.888889-22.755556 56.888889-56.888889 56.888889zM398.222222 796.444444c-34.133333 0-56.888889-22.755556-56.888889-56.888888s22.755556-56.888889 56.888889-56.888889 56.888889 22.755556 56.888889 56.888889-22.755556 56.888889-56.888889 56.888888z" p-id="2668"></path><path d="M967.111111 910.222222h-56.888889V398.222222c0-28.444444-28.444444-56.888889-56.888889-56.888889s-56.888889 28.444444-56.888889 56.888889v512h-113.777777V113.777778c0-62.577778-51.2-113.777778-113.777778-113.777778H227.555556C164.977778 0 113.777778 51.2 113.777778 113.777778v796.444444H56.888889c-28.444444 0-56.888889 28.444444-56.888889 56.888889v11.377778c5.688889 28.444444 28.444444 45.511111 56.888889 45.511111h910.222222c28.444444 0 51.2-22.755556 56.888889-51.2V967.111111c0-28.444444-28.444444-56.888889-56.888889-56.888889z m-398.222222 0H227.555556V113.777778h341.333333v796.444444z" p-id="2669"></path></svg>