<?xml version="1.0" standalone="no"?><!DOCTYPE svg PUBLIC "-//W3C//DTD SVG 1.1//EN" "http://www.w3.org/Graphics/SVG/1.1/DTD/svg11.dtd"><svg t="1577948812925" class="icon" viewBox="0 0 1024 1024" version="1.1" xmlns="http://www.w3.org/2000/svg" p-id="1854" xmlns:xlink="http://www.w3.org/1999/xlink" width="200" height="200"><defs><style type="text/css"></style></defs><path d="M978.244333 628.109646c0-10.894684-8.326508-19.813077-18.508925-19.813077h-74.055764c-10.182417 0-18.508925 8.918393-18.508925 19.813077s8.326508 19.813077 18.508925 19.813077H915.344084l-75.90164 81.258694-118.517311-45.585124a19.602406 19.602406 0 0 0-16.663049 2.006387L578.371299 780.695417c-8.326508 5.938907-10.182417 18.819915-4.624723 27.738308 4.624723 4.955777 10.182417 7.925231 15.74011 7.92523 3.701785 0 7.40357-1.003194 10.182417-3.962615l116.631307-88.180732 120.333091 46.568255c6.480632 3.009581 13.884202 1.003194 19.441895-4.955777l84.268276-90.157024v36.6567c0 10.894684 8.33654 19.813077 18.518957 19.813077s18.508925-8.918393 18.508925-19.813077v-81.258694a3.812136 3.812136 0 0 0 0.922938-3.009582z m0 0" p-id="1855"></path><path d="M959.735408 796.535847c-10.182417 0-18.518957 8.918393-18.518957 19.813076v168.436233h-83.265082V855.995141c0-10.894684-8.326508-19.813077-18.508925-19.813077s-18.508925 8.918393-18.508925 19.813077v128.800047h-83.265082V806.457433c0-10.894684-8.326508-19.813077-18.508925-19.813077S700.560299 795.532653 700.560299 806.457433v178.337755h-92.564688v-89.163862c0-10.894684-8.326508-19.813077-18.508925-19.813076s-18.508925 8.918393-18.508925 19.813076v114.93591c0 1.003194 0 1.003194 0.922938 2.006387 0 1.003194 0 1.003194 0.922939 2.006388a18.217999 18.217999 0 0 0 12.038325 8.918392H957.879499a7.875071 7.875071 0 0 0 4.624723-1.003194h0.922939c0.922938 0 1.855908-1.003194 2.778846-1.003193a0.93297 0.93297 0 0 0 0.922939-1.003194c0.922938-1.003194 1.855908-1.003194 2.778846-2.006388a0.922938 0.922938 0 0 0 0.922939-1.003193l2.778846-3.009582s0-1.003194 0.922939-1.003193a3.812136 3.812136 0 0 0 0.922938-3.009582c0-1.003194 0-1.003194 0.922938-2.006387a3.802104 3.802104 0 0 1 0.922938-3.009582V816.358955c0.943002-10.894684-7.383506-19.823109-17.565922-19.823108z m0 0" p-id="1856"></path><path d="M518.611047 539.28687c-0.732331 0-1.454631 0-2.166899 0.10032h-315.203479a24.427768 24.427768 0 0 0 0 48.855536c0.632012 0 1.253992 0 1.86594-0.080256h315.504438a24.427768 24.427768 0 1 0 0-48.855536zM200.237475 221.224288c0.7223 0 1.424535 0 2.126771-0.100319h242.532123c0.702236 0.060192 1.414503 0.100319 2.126771 0.100319a24.427768 24.427768 0 0 0 0-48.855536h-246.785665a24.427768 24.427768 0 0 0 0 48.855536zM201.240669 344.276035a24.427768 24.427768 0 1 0 0 48.855536H711.69575c0.662108 0.05016 1.324216 0.090287 2.006388 0.090288a24.427768 24.427768 0 0 0 0.922938-48.835473H203.00629c-0.581852-0.090287-1.173737-0.110351-1.765621-0.110351z" p-id="1857"></path><path d="M157.070047 975.234751c-66.902992 0-66.902992-73.142857-66.902992-73.142857V367.108725H45.575093v559.360778s0 97.520466 91.992867 97.520465h400.8361v-48.755217zM782.862316 0H136.173521C45.575093 0 45.575093 97.530497 45.575093 97.530497v219.920137h44.591962V121.908106s0-73.142857 66.902992-73.142857h602.0868c66.902992 0 66.902992 73.142857 66.902992 73.142857v458.680251a4.745106 4.745106 0 0 0 4.745106 4.745107h35.111782a4.745106 4.745106 0 0 0 4.745107-4.745107V97.520466S869.277426 0 782.862316 0z" p-id="1858"></path></svg>