<?xml version="1.0" standalone="no"?><!DOCTYPE svg PUBLIC "-//W3C//DTD SVG 1.1//EN" "http://www.w3.org/Graphics/SVG/1.1/DTD/svg11.dtd"><svg t="1586311762234" class="icon" viewBox="0 0 1024 1024" version="1.1" xmlns="http://www.w3.org/2000/svg" p-id="2304" xmlns:xlink="http://www.w3.org/1999/xlink" width="200" height="200"><defs><style type="text/css"></style></defs><path d="M102.4 0h819.2c56.32 0 102.4 46.08 102.4 102.4v819.2c0 56.32-46.08 102.4-102.4 102.4H102.4c-56.32 0-102.4-46.08-102.4-102.4V102.4C0 46.08 46.08 0 102.4 0z m409.6 865.28c28.16 0 51.2-25.6 51.2-51.2V460.8c0-28.16-23.04-51.2-51.2-51.2s-51.2 23.04-51.2 51.2v353.28c0 28.16 23.04 51.2 51.2 51.2z m294.4-363.52l17.92-2.56c28.16 0 51.2-23.04 51.2-51.2 0-12.8-5.12-25.6-15.36-35.84-10.24-10.24-23.04-15.36-35.84-15.36h-15.36c-17.92 0-25.6-2.56-28.16-5.12-2.56-2.56-10.24-7.68-20.48-25.6L716.8 281.6c-15.36-28.16-28.16-46.08-40.96-56.32-17.92-12.8-43.52-20.48-81.92-20.48H424.96c-38.4 0-66.56 7.68-84.48 23.04-10.24 7.68-20.48 23.04-33.28 46.08l-48.64 87.04c-10.24 23.04-17.92 28.16-20.48 30.72-2.56 2.56-7.68 5.12-23.04 5.12h-17.92c-28.16 0-51.2 23.04-51.2 51.2s23.04 51.2 51.2 51.2h40.96c25.6 0 46.08-7.68 61.44-17.92 15.36-10.24 28.16-23.04 35.84-35.84L389.12 345.6c10.24-17.92 15.36-23.04 17.92-25.6 7.68-5.12 17.92-7.68 30.72-7.68h143.36c15.36 0 23.04 2.56 25.6 5.12 7.68 5.12 12.8 12.8 20.48 25.6l61.44 110.08c10.24 17.92 25.6 30.72 43.52 38.4 17.92 7.68 40.96 10.24 74.24 10.24z" fill="#cdcdcd" p-id="2305"></path></svg>