<?xml version="1.0" standalone="no"?><!DOCTYPE svg PUBLIC "-//W3C//DTD SVG 1.1//EN" "http://www.w3.org/Graphics/SVG/1.1/DTD/svg11.dtd"><svg t="1588258530855" class="icon" viewBox="0 0 1024 1024" version="1.1" xmlns="http://www.w3.org/2000/svg" p-id="1737" xmlns:xlink="http://www.w3.org/1999/xlink" width="200" height="200"><defs><style type="text/css"></style></defs><path d="M898.8 940.8c-18.2 0-32.9-14.7-32.9-32.9V380.1L510.1 133.4 156.2 380v527.9c0 18.2-14.7 32.9-32.9 32.9s-32.9-14.7-32.9-32.9V362.8c0-10.8 5.2-20.9 14.1-27.1L479.6 74.5c18.2-12.8 42.8-12.8 61-0.1l376.9 261.3c8.8 6.2 14.2 16.3 14.2 27.1v545.1c0 18.2-14.7 32.9-32.9 32.9z m0 0" p-id="1738"></path><path d="M740.5 667.6c-0.1-0.1-9.9-11.4-20.1-24.7-15.3-20.1-19.1-28.8-20-31.4 0.9-2.5 4.8-10.5 19.7-28.4 10-12.1 19.8-22.2 19.9-22.3 5.2-5.4 6.1-13.7 2.1-20l-54.2-87c-3.6-5.8-10.5-8.8-17.3-7.4-0.2 0-14.4 3-30.6 5-27.1 3.2-35.1 0.6-36.4 0.1-0.9-0.8-6.3-6.2-15.1-28.2-5.4-13.4-9.1-25.8-9.1-25.9-2-7-8.4-11.7-15.7-11.7H458c-7.5 0-14.1 5.1-15.9 12.4-0.1 0.1-3 12.1-7.7 25.3-7.6 21-12.9 26.6-13.9 27.5-1.5 0.5-9.5 2.5-34.9-0.7-15.6-1.9-29.4-4.8-29.6-4.9-6.7-1.4-13.6 1.5-17.2 7.4l-54.2 87c-3.8 6.1-3.2 14 1.5 19.4 0.1 0.1 9.4 10.8 18.6 23.7 14.9 20.8 16.7 28.9 16.9 30.4-0.4 1.4-2.8 8.3-16.9 25.2-8.9 10.5-17.5 19.1-17.7 19.2-5.2 5.2-6.4 13.1-2.9 19.5l51.2 93.1c3.6 6.5 11.2 9.8 18.4 8 0.2-0.1 13.9-3.5 29.5-6 25.1-3.9 33.3-1.8 34.7-1.3 1.1 1 6.9 7.1 15.4 30.7 5.4 14.7 9 28.2 9 28.3 1.9 7.2 8.4 12.2 15.9 12.2h105.4c7.3 0 13.7-4.9 15.8-11.9 0-0.2 3.8-13.2 9.4-27.5 9-23.1 14.8-29.2 16-30.1 1.4-0.4 9.6-2.3 34.1 2.1 15.3 2.8 28.8 6.4 28.9 6.5 6.9 1.9 14.2-0.9 18.1-6.9l56.3-87c3.6-6.1 3.1-14.1-1.7-19.7z m-76 79.1c-5.8-1.4-13.4-3-21.3-4.4-18.3-3.2-41.1-5.9-54.7 1.7-7.1 4-17 12.8-29.9 45.5-2.9 7.3-5.3 14.4-7.2 20h-81c-1.7-5.7-4-12.8-6.8-20.2-6.4-17.5-15.6-38.6-29.2-46.6-7.2-4.2-19.9-8.3-55.2-2.9-7.9 1.2-15.3 2.7-21.2 3.9L318.6 672c3.5-3.7 7.7-8.4 11.9-13.5 20.5-24.5 23.5-36.3 23.8-43.8 0.3-8.1-1.9-21.2-22.5-50-4.7-6.6-9.5-12.7-13.2-17.4l42.1-67.5c6 1 13.8 2.3 22 3.3 34.7 4.2 47 0.4 53.8-3.3 6.7-3.7 16.8-12.2 28.3-43.6 2.3-6.3 4.3-12.4 5.8-17.5h81.3c1.7 5.1 4 11.5 6.8 18.1 12.4 30.6 21.6 39.1 28.2 43 7.2 4.2 20 8.6 56 4.4 8.7-1 17-2.3 23.2-3.4l41.7 66.9c-4.1 4.5-9.2 10.3-14.3 16.6-22.8 27.8-25.9 39.5-25.9 47.3 0 7.8 3 19.7 25.5 49.5 5.4 7.2 10.7 13.8 14.9 18.8l-43.5 66.8z m0 0" p-id="1739"></path><path d="M512.6 520.9c-47.1 0-85.4 38.3-85.4 85.4 0 47.1 38.3 85.4 85.4 85.4 47.1 0 85.4-38.3 85.4-85.4-0.1-47.1-38.3-85.4-85.4-85.4z m0 131c-25.2 0-45.6-20.4-45.6-45.6 0-25.2 20.4-45.6 45.6-45.6 25.2 0 45.6 20.4 45.6 45.6 0 25.2-20.5 45.6-45.6 45.6z m0 0" p-id="1740"></path></svg>